<svg width="21" height="22" viewBox="0 0 21 22" fill="none" xmlns="http://www.w3.org/2000/svg">
<g id="Social Icons" clip-path="url(#clip0_63_579)">
<path id="c" d="M21 11C21 5.20106 16.2989 0.5 10.5 0.5C4.70106 0.5 0 5.20106 0 11C0 15.9241 3.39024 20.056 7.96362 21.1909V14.2088H5.79852V11H7.96362V9.61736C7.96362 6.04358 9.58104 4.3871 13.0897 4.3871C13.755 4.3871 14.9029 4.51772 15.3724 4.64792V7.55642C15.1246 7.53038 14.6941 7.51736 14.1595 7.51736C12.4379 7.51736 11.7726 8.16962 11.7726 9.86516V11H15.2023L14.6131 14.2088H11.7726V21.4231C16.9718 20.7952 21.0004 16.3684 21.0004 11H21Z" fill="#0866FF"/>
<path id="d" d="M14.6126 14.2089L15.2019 11.0001H11.7722V9.86527C11.7722 8.16973 12.4375 7.51747 14.159 7.51747C14.6937 7.51747 15.1242 7.53049 15.372 7.55653V4.64803C14.9024 4.51741 13.7546 4.38721 13.0893 4.38721C9.58062 4.38721 7.9632 6.04369 7.9632 9.61747V11.0001H5.7981V14.2089H7.9632V21.191C8.77548 21.3926 9.62514 21.5001 10.4996 21.5001C10.9301 21.5001 11.3547 21.4736 11.7718 21.4232V14.2089H14.6122H14.6126Z" fill="white"/>
</g>
<defs>
<clipPath id="clip0_63_579">
<rect width="21" height="21" fill="white" transform="translate(0 0.5)"/>
</clipPath>
</defs>
</svg>
