<svg width="35" height="31" viewBox="0 0 35 31" fill="none" xmlns="http://www.w3.org/2000/svg">
<path id="Icon" opacity="0.85" d="M30.6495 4.35058C29.9046 3.60538 29.0203 3.01423 28.0469 2.61091C27.0735 2.20759 26.0302 2 24.9766 2C23.9229 2 22.8796 2.20759 21.9063 2.61091C20.9329 3.01423 20.0485 3.60538 19.3037 4.35058L17.7578 5.89641L16.212 4.35058C14.7074 2.84603 12.6668 2.00078 10.5391 2.00078C8.41132 2.00078 6.37071 2.84603 4.86616 4.35058C3.36161 5.85513 2.51636 7.89574 2.51636 10.0235C2.51636 12.1513 3.36161 14.1919 4.86616 15.6964L17.7578 28.5881L30.6495 15.6964C31.3947 14.9516 31.9858 14.0672 32.3892 13.0938C32.7925 12.1204 33.0001 11.0771 33.0001 10.0235C33.0001 8.96987 32.7925 7.92656 32.3892 6.95319C31.9858 5.97981 31.3947 5.09543 30.6495 4.35058Z" fill="#BCBBBA" stroke="#1E1E1E" stroke-width="4" stroke-linecap="round" stroke-linejoin="round"/>
</svg>
