<svg width="24" height="25" viewBox="0 0 24 25" fill="none" xmlns="http://www.w3.org/2000/svg">
<g id="material-symbols:chevron-left-rounded">
<path id="Vector" d="M10.8 12.5882L14.7 16.4882C14.8834 16.6715 14.975 16.9049 14.975 17.1882C14.975 17.4715 14.8834 17.7048 14.7 17.8882C14.5167 18.0715 14.2834 18.1632 14 18.1632C13.7167 18.1632 13.4834 18.0715 13.3 17.8882L8.70005 13.2882C8.60005 13.1882 8.52938 13.0799 8.48805 12.9632C8.44672 12.8465 8.42572 12.7215 8.42505 12.5882C8.42505 12.4549 8.44605 12.3299 8.48805 12.2132C8.53005 12.0965 8.60072 11.9882 8.70005 11.8882L13.3 7.28818C13.4834 7.10485 13.7167 7.01318 14 7.01318C14.2834 7.01318 14.5167 7.10485 14.7 7.28818C14.8834 7.47152 14.975 7.70485 14.975 7.98818C14.975 8.27152 14.8834 8.50485 14.7 8.68818L10.8 12.5882Z" fill="black"/>
</g>
</svg>
