<svg width="24" height="25" viewBox="0 0 24 25" fill="none" xmlns="http://www.w3.org/2000/svg">
<g id="material-symbols:chevron-left-rounded">
<path id="Vector" d="M13.2 12.5882L9.29995 16.4882C9.11662 16.6715 9.02495 16.9049 9.02495 17.1882C9.02495 17.4715 9.11662 17.7048 9.29995 17.8882C9.48328 18.0715 9.71662 18.1632 9.99995 18.1632C10.2833 18.1632 10.5166 18.0715 10.7 17.8882L15.3 13.2882C15.4 13.1882 15.4706 13.0799 15.512 12.9632C15.5533 12.8465 15.5743 12.7215 15.575 12.5882C15.575 12.4549 15.554 12.3299 15.512 12.2132C15.47 12.0965 15.3993 11.9882 15.3 11.8882L10.7 7.28818C10.5166 7.10485 10.2833 7.01318 9.99995 7.01318C9.71662 7.01318 9.48328 7.10485 9.29995 7.28818C9.11662 7.47152 9.02495 7.70485 9.02495 7.98818C9.02495 8.27152 9.11662 8.50485 9.29995 8.68818L13.2 12.5882Z" fill="black"/>
</g>
</svg>
