<svg width="46" height="44" viewBox="0 0 46 44" fill="none" xmlns="http://www.w3.org/2000/svg">
<g id="search">
<path id="icon" d="M37.5667 38.125L25.4917 26.8375C24.5333 27.5542 23.4312 28.1215 22.1854 28.5396C20.9396 28.9576 19.6139 29.1667 18.2083 29.1667C14.7264 29.1667 11.7795 28.0394 9.36771 25.7849C6.9559 23.5304 5.75 20.7757 5.75 17.5208C5.75 14.266 6.9559 11.5113 9.36771 9.25677C11.7795 7.00226 14.7264 5.875 18.2083 5.875C21.6903 5.875 24.6372 7.00226 27.049 9.25677C29.4608 11.5113 30.6667 14.266 30.6667 17.5208C30.6667 18.8347 30.4431 20.074 29.9958 21.2385C29.5486 22.4031 28.9417 23.4333 28.175 24.3292L40.25 35.6167L37.5667 38.125ZM18.2083 25.5833C20.6042 25.5833 22.6406 24.7995 24.3177 23.2318C25.9948 21.6641 26.8333 19.7604 26.8333 17.5208C26.8333 15.2812 25.9948 13.3776 24.3177 11.8099C22.6406 10.2422 20.6042 9.45833 18.2083 9.45833C15.8125 9.45833 13.776 10.2422 12.099 11.8099C10.4219 13.3776 9.58333 15.2812 9.58333 17.5208C9.58333 19.7604 10.4219 21.6641 12.099 23.2318C13.776 24.7995 15.8125 25.5833 18.2083 25.5833Z" fill="#1D1B20"/>
</g>
</svg>
